<mxfile host="Electron" agent="Mozilla/5.0 (Windows NT 10.0; Win64; x64) AppleWebKit/537.36 (KHTML, like Gecko) draw.io/24.7.17 Chrome/128.0.6613.36 Electron/32.0.1 Safari/537.36" version="24.7.17">
  <diagram name="Page-1" id="TyTShPDWlt1Sb9ZXsiB4">
    <mxGraphModel dx="1122" dy="650" grid="1" gridSize="10" guides="1" tooltips="1" connect="1" arrows="1" fold="1" page="1" pageScale="1" pageWidth="850" pageHeight="1100" math="0" shadow="0">
      <root>
        <mxCell id="0" />
        <mxCell id="1" parent="0" />
        <mxCell id="0vH8n8rHkzdedY4fJtGa-1" value="Login Activity" style="swimlane;childLayout=stackLayout;resizeParent=1;resizeParentMax=0;startSize=20;html=1;" parent="1" vertex="1">
          <mxGeometry x="200" y="50" width="630" height="860" as="geometry" />
        </mxCell>
        <mxCell id="0vH8n8rHkzdedY4fJtGa-2" value="admin/store manager/cashier/sales associate" style="swimlane;startSize=20;html=1;" parent="0vH8n8rHkzdedY4fJtGa-1" vertex="1">
          <mxGeometry y="20" width="310" height="840" as="geometry" />
        </mxCell>
        <mxCell id="0vH8n8rHkzdedY4fJtGa-5" value="" style="strokeWidth=2;html=1;shape=mxgraph.flowchart.start_2;whiteSpace=wrap;fillColor=#000000;" parent="0vH8n8rHkzdedY4fJtGa-2" vertex="1">
          <mxGeometry x="135" y="80" width="30" height="30" as="geometry" />
        </mxCell>
        <mxCell id="0vH8n8rHkzdedY4fJtGa-6" value="user already registered by Admin" style="shape=note;whiteSpace=wrap;html=1;backgroundOutline=1;darkOpacity=0.05;" parent="0vH8n8rHkzdedY4fJtGa-2" vertex="1">
          <mxGeometry x="20" y="30" width="70" height="100" as="geometry" />
        </mxCell>
        <mxCell id="0vH8n8rHkzdedY4fJtGa-8" value="" style="endArrow=none;dashed=1;html=1;rounded=0;exitX=0;exitY=0;exitDx=70;exitDy=65;exitPerimeter=0;entryX=0;entryY=0.5;entryDx=0;entryDy=0;entryPerimeter=0;" parent="0vH8n8rHkzdedY4fJtGa-2" source="0vH8n8rHkzdedY4fJtGa-6" target="0vH8n8rHkzdedY4fJtGa-5" edge="1">
          <mxGeometry width="50" height="50" relative="1" as="geometry">
            <mxPoint x="400" y="280" as="sourcePoint" />
            <mxPoint x="450" y="230" as="targetPoint" />
          </mxGeometry>
        </mxCell>
        <mxCell id="0vH8n8rHkzdedY4fJtGa-9" value="enter credentials" style="rounded=1;whiteSpace=wrap;html=1;" parent="0vH8n8rHkzdedY4fJtGa-2" vertex="1">
          <mxGeometry x="90" y="160" width="120" height="60" as="geometry" />
        </mxCell>
        <mxCell id="0vH8n8rHkzdedY4fJtGa-10" value="" style="endArrow=classic;html=1;rounded=0;exitX=0.5;exitY=1;exitDx=0;exitDy=0;exitPerimeter=0;entryX=0.5;entryY=0;entryDx=0;entryDy=0;" parent="0vH8n8rHkzdedY4fJtGa-2" source="0vH8n8rHkzdedY4fJtGa-5" target="0vH8n8rHkzdedY4fJtGa-9" edge="1">
          <mxGeometry width="50" height="50" relative="1" as="geometry">
            <mxPoint x="400" y="270" as="sourcePoint" />
            <mxPoint x="450" y="220" as="targetPoint" />
          </mxGeometry>
        </mxCell>
        <mxCell id="YwySobhvGUrZ9lL-yAgw-5" value="login successful" style="rounded=1;whiteSpace=wrap;html=1;" vertex="1" parent="0vH8n8rHkzdedY4fJtGa-2">
          <mxGeometry x="15" y="550" width="120" height="50" as="geometry" />
        </mxCell>
        <mxCell id="YwySobhvGUrZ9lL-yAgw-6" value="login failed" style="rounded=1;whiteSpace=wrap;html=1;" vertex="1" parent="0vH8n8rHkzdedY4fJtGa-2">
          <mxGeometry x="180" y="550" width="120" height="50" as="geometry" />
        </mxCell>
        <mxCell id="YwySobhvGUrZ9lL-yAgw-8" value="" style="endArrow=none;html=1;rounded=0;strokeWidth=7;" edge="1" parent="0vH8n8rHkzdedY4fJtGa-2">
          <mxGeometry relative="1" as="geometry">
            <mxPoint x="75" y="690" as="sourcePoint" />
            <mxPoint x="235" y="690" as="targetPoint" />
          </mxGeometry>
        </mxCell>
        <mxCell id="0vH8n8rHkzdedY4fJtGa-20" value="" style="ellipse;html=1;shape=endState;fillColor=#000000;strokeColor=#000000;" parent="0vH8n8rHkzdedY4fJtGa-2" vertex="1">
          <mxGeometry x="130" y="780" width="30" height="30" as="geometry" />
        </mxCell>
        <mxCell id="0vH8n8rHkzdedY4fJtGa-12" value="" style="endArrow=classic;html=1;rounded=0;exitX=1;exitY=0.5;exitDx=0;exitDy=0;entryX=0.006;entryY=0.605;entryDx=0;entryDy=0;entryPerimeter=0;" parent="0vH8n8rHkzdedY4fJtGa-1" source="0vH8n8rHkzdedY4fJtGa-9" target="YwySobhvGUrZ9lL-yAgw-2" edge="1">
          <mxGeometry width="50" height="50" relative="1" as="geometry">
            <mxPoint x="390" y="320" as="sourcePoint" />
            <mxPoint x="350" y="220" as="targetPoint" />
          </mxGeometry>
        </mxCell>
        <mxCell id="0vH8n8rHkzdedY4fJtGa-3" value="System" style="swimlane;startSize=20;html=1;" parent="0vH8n8rHkzdedY4fJtGa-1" vertex="1">
          <mxGeometry x="310" y="20" width="320" height="840" as="geometry" />
        </mxCell>
        <mxCell id="0vH8n8rHkzdedY4fJtGa-11" value="valid?" style="rhombus;whiteSpace=wrap;html=1;" parent="0vH8n8rHkzdedY4fJtGa-3" vertex="1">
          <mxGeometry x="60" y="230" width="120" height="80" as="geometry" />
        </mxCell>
        <mxCell id="0vH8n8rHkzdedY4fJtGa-14" value="incorrect" style="text;html=1;align=center;verticalAlign=middle;whiteSpace=wrap;rounded=0;" parent="0vH8n8rHkzdedY4fJtGa-3" vertex="1">
          <mxGeometry x="30" y="100" width="60" height="30" as="geometry" />
        </mxCell>
        <mxCell id="0vH8n8rHkzdedY4fJtGa-15" value="" style="endArrow=classic;html=1;rounded=0;exitX=0;exitY=0.5;exitDx=0;exitDy=0;entryX=0.325;entryY=-0.03;entryDx=0;entryDy=0;entryPerimeter=0;" parent="0vH8n8rHkzdedY4fJtGa-3" source="0vH8n8rHkzdedY4fJtGa-11" target="0vH8n8rHkzdedY4fJtGa-18" edge="1">
          <mxGeometry width="50" height="50" relative="1" as="geometry">
            <mxPoint x="30" y="280" as="sourcePoint" />
            <mxPoint x="80" y="400" as="targetPoint" />
            <Array as="points">
              <mxPoint x="50" y="270" />
            </Array>
          </mxGeometry>
        </mxCell>
        <mxCell id="0vH8n8rHkzdedY4fJtGa-17" value="valid" style="text;html=1;align=center;verticalAlign=middle;whiteSpace=wrap;rounded=0;" parent="0vH8n8rHkzdedY4fJtGa-3" vertex="1">
          <mxGeometry y="310" width="60" height="30" as="geometry" />
        </mxCell>
        <mxCell id="0vH8n8rHkzdedY4fJtGa-18" value="Display User Page" style="rounded=1;whiteSpace=wrap;html=1;" parent="0vH8n8rHkzdedY4fJtGa-3" vertex="1">
          <mxGeometry x="10" y="420" width="120" height="50" as="geometry" />
        </mxCell>
        <mxCell id="0vH8n8rHkzdedY4fJtGa-19" value="" style="endArrow=classic;html=1;rounded=0;exitX=1;exitY=0.5;exitDx=0;exitDy=0;entryX=0.333;entryY=-0.024;entryDx=0;entryDy=0;entryPerimeter=0;" parent="0vH8n8rHkzdedY4fJtGa-3" source="0vH8n8rHkzdedY4fJtGa-11" target="YwySobhvGUrZ9lL-yAgw-3" edge="1">
          <mxGeometry width="50" height="50" relative="1" as="geometry">
            <mxPoint x="219.9999999999999" y="319.99999999999994" as="sourcePoint" />
            <mxPoint x="220.0100000000001" y="402.55" as="targetPoint" />
            <Array as="points">
              <mxPoint x="220" y="270" />
            </Array>
          </mxGeometry>
        </mxCell>
        <mxCell id="YwySobhvGUrZ9lL-yAgw-2" value="validate credentials" style="rounded=1;whiteSpace=wrap;html=1;" vertex="1" parent="0vH8n8rHkzdedY4fJtGa-3">
          <mxGeometry x="50" y="160" width="130" height="50" as="geometry" />
        </mxCell>
        <mxCell id="YwySobhvGUrZ9lL-yAgw-3" value="show error message" style="rounded=1;whiteSpace=wrap;html=1;" vertex="1" parent="0vH8n8rHkzdedY4fJtGa-3">
          <mxGeometry x="180" y="420" width="120" height="50" as="geometry" />
        </mxCell>
        <mxCell id="YwySobhvGUrZ9lL-yAgw-4" value="" style="endArrow=classic;html=1;rounded=0;exitX=0.532;exitY=1.011;exitDx=0;exitDy=0;entryX=0.5;entryY=0;entryDx=0;entryDy=0;exitPerimeter=0;" edge="1" parent="0vH8n8rHkzdedY4fJtGa-3" source="YwySobhvGUrZ9lL-yAgw-2" target="0vH8n8rHkzdedY4fJtGa-11">
          <mxGeometry width="50" height="50" relative="1" as="geometry">
            <mxPoint x="-80" y="320" as="sourcePoint" />
            <mxPoint x="-30" y="270" as="targetPoint" />
          </mxGeometry>
        </mxCell>
        <mxCell id="0vH8n8rHkzdedY4fJtGa-22" value="" style="endArrow=classic;html=1;rounded=0;exitX=0.458;exitY=0.996;exitDx=0;exitDy=0;entryX=0.39;entryY=-0.044;entryDx=0;entryDy=0;exitPerimeter=0;entryPerimeter=0;" parent="0vH8n8rHkzdedY4fJtGa-1" source="0vH8n8rHkzdedY4fJtGa-18" target="YwySobhvGUrZ9lL-yAgw-5" edge="1">
          <mxGeometry width="50" height="50" relative="1" as="geometry">
            <mxPoint x="320" y="690" as="sourcePoint" />
            <mxPoint x="370" y="640" as="targetPoint" />
            <Array as="points">
              <mxPoint x="375" y="530" />
              <mxPoint x="62" y="530" />
            </Array>
          </mxGeometry>
        </mxCell>
        <mxCell id="YwySobhvGUrZ9lL-yAgw-7" value="" style="endArrow=classic;html=1;rounded=0;exitX=0.25;exitY=1;exitDx=0;exitDy=0;" edge="1" parent="0vH8n8rHkzdedY4fJtGa-1" source="YwySobhvGUrZ9lL-yAgw-3">
          <mxGeometry width="50" height="50" relative="1" as="geometry">
            <mxPoint x="200" y="600" as="sourcePoint" />
            <mxPoint x="250" y="570" as="targetPoint" />
            <Array as="points">
              <mxPoint x="520" y="550" />
              <mxPoint x="250" y="550" />
            </Array>
          </mxGeometry>
        </mxCell>
        <mxCell id="YwySobhvGUrZ9lL-yAgw-9" value="" style="endArrow=classic;html=1;rounded=0;exitX=0.578;exitY=1.036;exitDx=0;exitDy=0;exitPerimeter=0;" edge="1" parent="1" source="YwySobhvGUrZ9lL-yAgw-5">
          <mxGeometry width="50" height="50" relative="1" as="geometry">
            <mxPoint x="460" y="660" as="sourcePoint" />
            <mxPoint x="310" y="760" as="targetPoint" />
            <Array as="points">
              <mxPoint x="284" y="720" />
              <mxPoint x="310" y="720" />
            </Array>
          </mxGeometry>
        </mxCell>
        <mxCell id="YwySobhvGUrZ9lL-yAgw-10" value="" style="endArrow=classic;html=1;rounded=0;exitX=0.25;exitY=1;exitDx=0;exitDy=0;" edge="1" parent="1" source="YwySobhvGUrZ9lL-yAgw-6">
          <mxGeometry width="50" height="50" relative="1" as="geometry">
            <mxPoint x="390" y="700" as="sourcePoint" />
            <mxPoint x="380" y="760" as="targetPoint" />
            <Array as="points">
              <mxPoint x="410" y="700" />
              <mxPoint x="380" y="700" />
            </Array>
          </mxGeometry>
        </mxCell>
        <mxCell id="YwySobhvGUrZ9lL-yAgw-11" value="" style="endArrow=classic;html=1;rounded=0;entryX=0.351;entryY=0.016;entryDx=0;entryDy=0;entryPerimeter=0;" edge="1" parent="1" target="0vH8n8rHkzdedY4fJtGa-20">
          <mxGeometry width="50" height="50" relative="1" as="geometry">
            <mxPoint x="340" y="760" as="sourcePoint" />
            <mxPoint x="440" y="810" as="targetPoint" />
          </mxGeometry>
        </mxCell>
      </root>
    </mxGraphModel>
  </diagram>
</mxfile>
